<svg width="1024" height="1024" viewBox="0 0 1024 1024" xmlns="http://www.w3.org/2000/svg">
  <!-- Background -->
  <circle cx="512" cy="512" r="512" fill="#1E3A8A"/>
  
  <!-- Mountain Range -->
  <path d="M150 700 L300 400 L450 550 L600 300 L750 450 L900 350 L950 400 L950 800 L150 800 Z" fill="#059669"/>
  
  <!-- Resort Building Complex -->
  <rect x="400" y="500" width="80" height="200" fill="#FFFFFF"/>
  <rect x="500" y="450" width="80" height="250" fill="#FFFFFF"/>
  <rect x="600" y="520" width="80" height="180" fill="#FFFFFF"/>
  
  <!-- Building Details -->
  <rect x="420" y="520" width="15" height="15" fill="#1E3A8A"/>
  <rect x="450" y="520" width="15" height="15" fill="#1E3A8A"/>
  <rect x="420" y="550" width="15" height="15" fill="#1E3A8A"/>
  <rect x="450" y="550" width="15" height="15" fill="#1E3A8A"/>
  
  <rect x="520" y="470" width="15" height="15" fill="#1E3A8A"/>
  <rect x="550" y="470" width="15" height="15" fill="#1E3A8A"/>
  <rect x="520" y="500" width="15" height="15" fill="#1E3A8A"/>
  <rect x="550" y="500" width="15" height="15" fill="#1E3A8A"/>
  <rect x="520" y="530" width="15" height="15" fill="#1E3A8A"/>
  <rect x="550" y="530" width="15" height="15" fill="#1E3A8A"/>
  
  <rect x="620" y="540" width="15" height="15" fill="#1E3A8A"/>
  <rect x="650" y="540" width="15" height="15" fill="#1E3A8A"/>
  <rect x="620" y="570" width="15" height="15" fill="#1E3A8A"/>
  <rect x="650" y="570" width="15" height="15" fill="#1E3A8A"/>
  
  <!-- Job Matching Network -->
  <circle cx="300" cy="300" r="30" fill="#FBBF24"/>
  <circle cx="700" cy="250" r="30" fill="#FBBF24"/>
  <circle cx="200" cy="500" r="30" fill="#FBBF24"/>
  <circle cx="800" cy="400" r="30" fill="#FBBF24"/>
  
  <!-- Connection Lines -->
  <path d="M300 300 L500 450" stroke="#FBBF24" stroke-width="6" opacity="0.7"/>
  <path d="M700 250 L500 450" stroke="#FBBF24" stroke-width="6" opacity="0.7"/>
  <path d="M200 500 L400 500" stroke="#FBBF24" stroke-width="6" opacity="0.7"/>
  <path d="M800 400 L600 520" stroke="#FBBF24" stroke-width="6" opacity="0.7"/>
  
  <!-- Central Hub -->
  <circle cx="500" cy="450" r="40" fill="#EF4444"/>
  <path d="M480 450 L500 430 L520 450 L500 470 Z" fill="#FFFFFF"/>
  
  <!-- Sun -->
  <circle cx="800" cy="150" r="50" fill="#FBBF24"/>
  <path d="M800 80 L800 40 M800 260 L800 220 M920 150 L960 150 M640 150 L600 150 M880 80 L920 50 M880 220 L920 250 M720 80 L680 50 M720 220 L680 250" stroke="#FBBF24" stroke-width="6" stroke-linecap="round"/>
  
  <!-- App Name -->
  <text x="512" y="900" font-family="Arial, sans-serif" font-size="36" font-weight="bold" text-anchor="middle" fill="#FFFFFF">ResortByte</text>
  <text x="512" y="940" font-family="Arial, sans-serif" font-size="20" text-anchor="middle" fill="#FBBF24">구인구직 플랫폼</text>
</svg>
