<svg role="img" viewBox="0 0 24 24" xmlns="http://www.w3.org/2000/svg"><title>KakaoTalk</title><path d="M12.004 2.3c-6.075 0-10.999 3.663-10.999 8.184 0 2.6 1.68 4.9 4.27 6.44-.14.47-.9 3.04-.93 3.23 0 0-.02.17.09.24.11.07.25.05.25.05.33-.05 3.27-2.15 3.81-2.5.83.12 1.68.18 2.5.18 6.075 0 10.999-3.663 10.999-8.184C23.003 5.963 18.08 2.3 12.004 2.3zm-2.13 9.13c0 .36-.32.65-.7.65-.39 0-.7-.29-.7-.65V8.97c0-.36.31-.65.7-.65.38 0 .7.29.7.65zm3.56 0c0 .36-.31.65-.7.65-.39 0-.7-.29-.7-.65V8.97c0-.36.31-.65.7-.65.39 0 .7.29.7.65zm3.56 0c0 .36-.31.65-.7.65-.39 0-.7-.29-.7-.65V8.97c0-.36.31-.65.7-.65.39 0 .7.29.7.65z"/></svg>